<svg viewBox="0 0 640 280" xmlns="http://www.w3.org/2000/svg" role="img" aria-label="GBP/USDのチャート" font-family="-apple-system,'Hiragino Kaku Gothic ProN','Hiragino Sans','Yu Gothic','Noto Sans JP',sans-serif">
<line x1="50" y1="235.4" x2="580" y2="235.4" stroke="var(--ink)" stroke-opacity="0.10" stroke-width="0.7"/>
<text x="42" y="238.9" text-anchor="end" font-size="10.5" fill="var(--ink-faint)" style="font-variant-numeric:tabular-nums">1.3520</text>
<line x1="50" y1="207.3" x2="580" y2="207.3" stroke="var(--ink)" stroke-opacity="0.10" stroke-width="0.7"/>
<text x="42" y="210.8" text-anchor="end" font-size="10.5" fill="var(--ink-faint)" style="font-variant-numeric:tabular-nums">1.3540</text>
<line x1="50" y1="179.1" x2="580" y2="179.1" stroke="var(--ink)" stroke-opacity="0.10" stroke-width="0.7"/>
<text x="42" y="182.6" text-anchor="end" font-size="10.5" fill="var(--ink-faint)" style="font-variant-numeric:tabular-nums">1.3560</text>
<line x1="50" y1="151.0" x2="580" y2="151.0" stroke="var(--ink)" stroke-opacity="0.10" stroke-width="0.7"/>
<text x="42" y="154.5" text-anchor="end" font-size="10.5" fill="var(--ink-faint)" style="font-variant-numeric:tabular-nums">1.3580</text>
<line x1="50" y1="122.9" x2="580" y2="122.9" stroke="var(--ink)" stroke-opacity="0.10" stroke-width="0.7"/>
<text x="42" y="126.4" text-anchor="end" font-size="10.5" fill="var(--ink-faint)" style="font-variant-numeric:tabular-nums">1.3600</text>
<line x1="50" y1="94.8" x2="580" y2="94.8" stroke="var(--ink)" stroke-opacity="0.10" stroke-width="0.7"/>
<text x="42" y="98.3" text-anchor="end" font-size="10.5" fill="var(--ink-faint)" style="font-variant-numeric:tabular-nums">1.3620</text>
<line x1="50" y1="66.7" x2="580" y2="66.7" stroke="var(--ink)" stroke-opacity="0.10" stroke-width="0.7"/>
<text x="42" y="70.2" text-anchor="end" font-size="10.5" fill="var(--ink-faint)" style="font-variant-numeric:tabular-nums">1.3640</text>
<line x1="50" y1="38.5" x2="580" y2="38.5" stroke="var(--ink)" stroke-opacity="0.10" stroke-width="0.7"/>
<text x="42" y="42.0" text-anchor="end" font-size="10.5" fill="var(--ink-faint)" style="font-variant-numeric:tabular-nums">1.3660</text>
<text x="50.0" y="254" text-anchor="middle" font-size="10.5" fill="var(--ink-faint)">08/26</text>
<line x1="226.7" y1="38" x2="226.7" y2="238" stroke="var(--ink)" stroke-opacity="0.16" stroke-width="0.9" stroke-dasharray="2,2"/>
<text x="226.7" y="254" text-anchor="middle" font-size="10.5" fill="var(--ink-faint)">08/27</text>
<line x1="403.3" y1="38" x2="403.3" y2="238" stroke="var(--ink)" stroke-opacity="0.16" stroke-width="0.9" stroke-dasharray="2,2"/>
<text x="403.3" y="254" text-anchor="middle" font-size="10.5" fill="var(--ink-faint)">08/28</text>
<text x="580.0" y="254" text-anchor="middle" font-size="10.5" fill="var(--ink-faint)">08/29</text>
<text x="94.2" y="268" text-anchor="middle" font-size="9.5" fill="var(--ink-faint)">12時</text>
<text x="182.5" y="268" text-anchor="middle" font-size="9.5" fill="var(--ink-faint)">00時</text>
<text x="270.8" y="268" text-anchor="middle" font-size="9.5" fill="var(--ink-faint)">12時</text>
<text x="359.2" y="268" text-anchor="middle" font-size="9.5" fill="var(--ink-faint)">00時</text>
<text x="447.5" y="268" text-anchor="middle" font-size="9.5" fill="var(--ink-faint)">12時</text>
<text x="535.8" y="268" text-anchor="middle" font-size="9.5" fill="var(--ink-faint)">00時</text>
<polygon points="50.0,238.0 50.0,53.6 51.8,51.8 53.7,52.8 55.5,57.0 57.4,54.9 59.2,53.4 61.0,52.8 62.9,52.6 64.7,54.4 66.6,56.0 68.4,58.6 70.2,56.8 72.1,56.5 73.9,57.0 75.8,56.0 77.6,57.8 79.4,60.2 81.3,59.1 83.1,59.9 85.0,59.6 86.8,58.1 88.6,63.6 90.5,60.7 92.3,65.1 94.2,68.0 96.0,67.2 97.8,67.5 99.7,70.4 101.5,72.2 103.4,71.4 105.2,74.3 107.0,75.6 108.9,78.7 110.7,76.4 112.6,72.2 114.4,73.0 116.2,80.0 118.1,78.7 119.9,83.2 121.8,75.9 123.6,71.2 125.5,71.7 127.3,72.7 129.1,78.2 131.0,71.9 132.8,73.8 134.7,78.7 136.5,83.2 138.3,88.9 140.2,86.3 142.0,84.5 143.9,83.4 145.7,88.4 147.5,97.3 149.4,93.1 151.2,94.1 153.1,87.1 154.9,86.8 156.7,86.3 158.6,80.6 160.4,78.2 162.3,82.4 164.1,98.1 165.9,108.2 167.8,112.4 169.6,112.6 171.5,119.2 173.3,118.4 175.1,125.7 177.0,138.6 178.8,129.3 180.7,137.3 182.5,132.4 184.3,136.1 186.2,125.1 188.0,130.9 189.9,128.5 191.7,129.0 193.5,135.8 195.4,134.5 197.2,136.6 199.1,130.9 200.9,131.9 202.7,131.1 204.6,128.5 206.4,132.2 208.3,135.0 210.1,134.0 211.9,134.5 213.8,133.2 215.6,132.7 217.5,132.2 219.3,130.6 221.1,130.6 223.0,128.0 224.8,125.7 226.7,130.9 228.5,131.6 230.3,130.9 232.2,129.6 234.0,130.1 235.9,129.0 237.7,128.5 239.5,129.6 241.4,127.7 243.2,127.2 245.1,126.4 246.9,128.3 248.8,133.2 250.6,129.8 252.4,133.7 254.3,134.0 256.1,135.3 258.0,134.0 259.8,137.3 261.6,133.2 263.5,132.2 265.3,136.8 267.2,135.8 269.0,135.0 270.8,133.2 272.7,136.1 274.5,138.9 276.4,140.5 278.2,136.1 280.0,136.8 281.9,140.2 283.7,140.5 285.6,139.2 287.4,136.3 289.2,137.9 291.1,139.2 292.9,137.6 294.8,137.1 296.6,137.6 298.4,137.9 300.3,128.0 302.1,140.7 304.0,137.3 305.8,140.5 307.6,135.5 309.5,143.3 311.3,144.9 313.2,149.0 315.0,152.9 316.8,151.9 318.7,155.8 320.5,156.3 322.4,156.3 324.2,150.1 326.0,155.0 327.9,155.8 329.7,154.0 331.6,149.5 333.4,158.1 335.2,152.9 337.1,152.9 338.9,149.3 340.8,152.9 342.6,158.9 344.4,139.7 346.3,122.8 348.1,132.4 350.0,132.2 351.8,137.9 353.6,146.2 355.5,140.5 357.3,148.5 359.2,138.6 361.0,141.0 362.8,136.6 364.7,125.4 366.5,128.8 368.4,123.6 370.2,125.1 372.0,132.9 373.9,132.9 375.7,134.5 377.6,134.8 379.4,138.6 381.2,141.2 383.1,144.6 384.9,143.8 386.8,138.1 388.6,139.7 390.5,140.2 392.3,140.2 394.1,138.4 396.0,133.7 397.8,136.3 399.7,134.0 401.5,132.9 403.3,136.8 405.2,127.5 407.0,131.6 408.9,132.7 410.7,129.8 412.5,131.9 414.4,129.8 416.2,128.3 418.1,125.9 419.9,128.0 421.7,127.5 423.6,127.5 425.4,128.3 427.3,129.8 429.1,129.6 430.9,128.3 432.8,129.6 434.6,130.6 436.5,128.8 438.3,135.8 440.1,138.6 442.0,135.5 443.8,137.1 445.7,132.2 447.5,131.9 449.3,131.6 451.2,136.8 453.0,137.9 454.9,139.4 456.7,138.6 458.5,138.9 460.4,139.2 462.2,140.5 464.1,140.2 465.9,140.7 467.7,136.8 469.6,135.3 471.4,131.6 473.3,134.2 475.1,132.2 476.9,137.3 478.8,148.8 480.6,140.5 482.5,138.4 484.3,144.9 486.1,143.6 488.0,144.6 489.8,142.0 491.7,143.6 493.5,145.9 495.3,144.1 497.2,148.5 499.0,147.2 500.9,141.8 502.7,137.1 504.5,135.0 506.4,138.6 508.2,142.8 510.1,142.0 511.9,144.1 513.8,144.6 515.6,147.7 517.4,156.0 519.3,145.1 521.1,147.7 523.0,152.7 524.8,151.6 526.6,143.6 528.5,189.7 530.3,218.3 532.2,200.5 534.0,159.4 535.8,183.2 537.7,181.4 539.5,184.0 541.4,189.1 543.2,201.8 545.0,210.8 546.9,213.4 548.7,211.3 550.6,213.1 552.4,213.4 554.2,224.2 556.1,221.6 557.9,221.4 559.8,220.3 561.6,222.7 563.4,221.6 565.3,217.8 567.1,210.6 569.0,209.0 570.8,209.3 572.6,211.1 574.5,214.4 576.3,218.5 578.2,215.5 578.2,238.0" fill="var(--fall)" fill-opacity="0.12"/>
<polyline points="50.0,53.6 51.8,51.8 53.7,52.8 55.5,57.0 57.4,54.9 59.2,53.4 61.0,52.8 62.9,52.6 64.7,54.4 66.6,56.0 68.4,58.6 70.2,56.8 72.1,56.5 73.9,57.0 75.8,56.0 77.6,57.8 79.4,60.2 81.3,59.1 83.1,59.9 85.0,59.6 86.8,58.1 88.6,63.6 90.5,60.7 92.3,65.1 94.2,68.0 96.0,67.2 97.8,67.5 99.7,70.4 101.5,72.2 103.4,71.4 105.2,74.3 107.0,75.6 108.9,78.7 110.7,76.4 112.6,72.2 114.4,73.0 116.2,80.0 118.1,78.7 119.9,83.2 121.8,75.9 123.6,71.2 125.5,71.7 127.3,72.7 129.1,78.2 131.0,71.9 132.8,73.8 134.7,78.7 136.5,83.2 138.3,88.9 140.2,86.3 142.0,84.5 143.9,83.4 145.7,88.4 147.5,97.3 149.4,93.1 151.2,94.1 153.1,87.1 154.9,86.8 156.7,86.3 158.6,80.6 160.4,78.2 162.3,82.4 164.1,98.1 165.9,108.2 167.8,112.4 169.6,112.6 171.5,119.2 173.3,118.4 175.1,125.7 177.0,138.6 178.8,129.3 180.7,137.3 182.5,132.4 184.3,136.1 186.2,125.1 188.0,130.9 189.9,128.5 191.7,129.0 193.5,135.8 195.4,134.5 197.2,136.6 199.1,130.9 200.9,131.9 202.7,131.1 204.6,128.5 206.4,132.2 208.3,135.0 210.1,134.0 211.9,134.5 213.8,133.2 215.6,132.7 217.5,132.2 219.3,130.6 221.1,130.6 223.0,128.0 224.8,125.7 226.7,130.9 228.5,131.6 230.3,130.9 232.2,129.6 234.0,130.1 235.9,129.0 237.7,128.5 239.5,129.6 241.4,127.7 243.2,127.2 245.1,126.4 246.9,128.3 248.8,133.2 250.6,129.8 252.4,133.7 254.3,134.0 256.1,135.3 258.0,134.0 259.8,137.3 261.6,133.2 263.5,132.2 265.3,136.8 267.2,135.8 269.0,135.0 270.8,133.2 272.7,136.1 274.5,138.9 276.4,140.5 278.2,136.1 280.0,136.8 281.9,140.2 283.7,140.5 285.6,139.2 287.4,136.3 289.2,137.9 291.1,139.2 292.9,137.6 294.8,137.1 296.6,137.6 298.4,137.9 300.3,128.0 302.1,140.7 304.0,137.3 305.8,140.5 307.6,135.5 309.5,143.3 311.3,144.9 313.2,149.0 315.0,152.9 316.8,151.9 318.7,155.8 320.5,156.3 322.4,156.3 324.2,150.1 326.0,155.0 327.9,155.8 329.7,154.0 331.6,149.5 333.4,158.1 335.2,152.9 337.1,152.9 338.9,149.3 340.8,152.9 342.6,158.9 344.4,139.7 346.3,122.8 348.1,132.4 350.0,132.2 351.8,137.9 353.6,146.2 355.5,140.5 357.3,148.5 359.2,138.6 361.0,141.0 362.8,136.6 364.7,125.4 366.5,128.8 368.4,123.6 370.2,125.1 372.0,132.9 373.9,132.9 375.7,134.5 377.6,134.8 379.4,138.6 381.2,141.2 383.1,144.6 384.9,143.8 386.8,138.1 388.6,139.7 390.5,140.2 392.3,140.2 394.1,138.4 396.0,133.7 397.8,136.3 399.7,134.0 401.5,132.9 403.3,136.8 405.2,127.5 407.0,131.6 408.9,132.7 410.7,129.8 412.5,131.9 414.4,129.8 416.2,128.3 418.1,125.9 419.9,128.0 421.7,127.5 423.6,127.5 425.4,128.3 427.3,129.8 429.1,129.6 430.9,128.3 432.8,129.6 434.6,130.6 436.5,128.8 438.3,135.8 440.1,138.6 442.0,135.5 443.8,137.1 445.7,132.2 447.5,131.9 449.3,131.6 451.2,136.8 453.0,137.9 454.9,139.4 456.7,138.6 458.5,138.9 460.4,139.2 462.2,140.5 464.1,140.2 465.9,140.7 467.7,136.8 469.6,135.3 471.4,131.6 473.3,134.2 475.1,132.2 476.9,137.3 478.8,148.8 480.6,140.5 482.5,138.4 484.3,144.9 486.1,143.6 488.0,144.6 489.8,142.0 491.7,143.6 493.5,145.9 495.3,144.1 497.2,148.5 499.0,147.2 500.9,141.8 502.7,137.1 504.5,135.0 506.4,138.6 508.2,142.8 510.1,142.0 511.9,144.1 513.8,144.6 515.6,147.7 517.4,156.0 519.3,145.1 521.1,147.7 523.0,152.7 524.8,151.6 526.6,143.6 528.5,189.7 530.3,218.3 532.2,200.5 534.0,159.4 535.8,183.2 537.7,181.4 539.5,184.0 541.4,189.1 543.2,201.8 545.0,210.8 546.9,213.4 548.7,211.3 550.6,213.1 552.4,213.4 554.2,224.2 556.1,221.6 557.9,221.4 559.8,220.3 561.6,222.7 563.4,221.6 565.3,217.8 567.1,210.6 569.0,209.0 570.8,209.3 572.6,211.1 574.5,214.4 576.3,218.5 578.2,215.5" fill="none" stroke="var(--fall)" stroke-width="2.2" stroke-linejoin="round" stroke-linecap="round"/>
<text x="584.2" y="219.5" font-size="13" font-weight="700" fill="var(--fall)" style="font-variant-numeric:tabular-nums">1.3534</text>
<text x="0" y="18" font-size="13" font-weight="700" fill="var(--ink-soft)">GBP/USD　直近3営業日（-0.84%）</text>
</svg>